<svg id="Camada_1" data-name="Camada 1" xmlns="http://www.w3.org/2000/svg" viewBox="0 0 1053.49 215.78"><path d="M1089.08,112.68H452.3v6.19h636.78Zm-44.43-93.94h-35.86V35.22h26.78V46.35h-26.78V62.83h35.86V73.91H996.11V7.67h48.54Zm-73.8,55.17H959.31l-.1-47.32-19.59,40.5h-8.23L911.8,26.59V73.91H900.07V7.67h14.66l20.83,42.49L956.28,7.67h14.57Zm-126.09.56c-20,0-35.29-14.66-35.29-33.68s15.33-33.5,35.29-33.5,35.3,14.48,35.3,33.5-15.33,33.68-35.3,33.68m-74,0c-19.5,0-34.54-14.66-34.54-33.77,0-18.93,15.23-33.41,35-33.41a36.83,36.83,0,0,1,25.56,10.6l-7.39,9.27c-4.73-5.3-11.45-8.61-18-8.61a22,22,0,1,0,0,44,26.48,26.48,0,0,0,18-7.76l7.48,8.33c-6.81,6.91-16.56,11.35-26.11,11.35M725,73.91H683.76V7.67h12.68V62.46H725ZM661.09,18.74H625.23V35.22H652V46.35H625.23V62.83h35.86V73.91H612.55V7.67h48.54ZM574.61,73.91H561.45L546.69,24.22l-15,49.69H518.68L496.73,7.67h13.62l15.24,52.14L540.73,7.67h12.49l15.23,52.14,15-52.14h13.06ZM845,18.65a22.25,22.25,0,0,0-22.52,22.14A22.48,22.48,0,0,0,845,63.12a22.24,22.24,0,0,0,0-44.47m40.41,144.87c-7.54,0-12.48,3-12.48,8,0,15.23,33,7.28,32.9,28.55,0,9.71-8.62,16-21.18,16a33.44,33.44,0,0,1-22.43-9l3-5.78a29.4,29.4,0,0,0,19.5,8.21c8.46,0,13.74-3.43,13.74-9.13.08-15.65-32.91-7.36-32.91-28.38,0-9.21,8.12-15.07,20.26-15.07a34.74,34.74,0,0,1,18.59,5.44l-2.85,5.95a30.91,30.91,0,0,0-16.15-4.86M841,177.08c0-9-6.12-13.64-16.66-13.64H809.23v27.63H824.3c10.54,0,16.66-4.78,16.66-14m6.44-.17c0,12.9-8.37,20.35-22.85,20.35H809.23v18.59h-6.7V157.24h22c14.48,0,22.85,7.2,22.85,19.67m-71.69,38.94H769V157.24h6.7Zm-54-24.78c10.63,0,16.66-4.78,16.66-14,0-9-6-13.64-16.66-13.64H706.12v27.63Zm16.07,24.78-12.3-18.75c-1.17.08-2.43.16-3.77.16H706.12v18.59h-6.7V157.24h22.27c14.65,0,23.11,7.2,23.11,19.67,0,9.63-4.77,16.25-13.23,18.93l13.81,20Zm-57.2-58.61v6.2H661.39v52.41h-6.7V163.44H635.6v-6.2ZM428.91,30.88a80.09,80.09,0,0,0-73.37,48L297.93,210.46a21,21,0,0,1-38.56,0L197.89,70.05A65.37,65.37,0,0,0,138,30.88H89.61l6.19,5a96.67,96.67,0,0,1,28,36.51L181.42,204c1.55,3.53,7.32,3.52,8.88,0l26.14-60.55,8.84,20.2-20.15,46.85a21,21,0,0,1-38.56,0L109,78.85a80.08,80.08,0,0,0-73.37-48V14.67H138a81.61,81.61,0,0,1,74.76,48.88L274.21,204c1.55,3.53,7.33,3.5,8.87,0L340.69,72.35a96.75,96.75,0,0,1,28-36.51l6.2-5H326.51A65.36,65.36,0,0,0,266.61,70l-18.73,41.88L239,91.71l12.72-28.16a81.61,81.61,0,0,1,74.76-48.88h102.4Z" transform="translate(-35.59 -7.29)" fill="#1e91b2"/></svg>