<svg id="Camada_1" data-name="Camada 1" xmlns="http://www.w3.org/2000/svg" viewBox="0 0 1053.49 208.72"><path d="M444.5,28.3A79.63,79.63,0,0,0,371.57,76L314.31,206.8a20.92,20.92,0,0,1-38.33,0L214.89,67.24A65,65,0,0,0,155.35,28.3H107.26l6.16,4.94a96.15,96.15,0,0,1,27.83,36.29l57.26,130.82c1.54,3.5,7.28,3.49,8.82,0l26-60.19,8.79,20.08-20,46.57a20.92,20.92,0,0,1-38.33,0L126.49,76A79.59,79.59,0,0,0,53.56,28.3V12.2H155.35a81.11,81.11,0,0,1,74.3,48.58l61.09,139.57c1.54,3.5,7.29,3.48,8.82,0L356.82,69.53a96.05,96.05,0,0,1,27.83-36.29l6.16-4.94H342.72a65,65,0,0,0-59.54,38.93l-18.61,41.63-8.79-20.09,12.64-28a81.11,81.11,0,0,1,74.3-48.58H444.5Z" transform="translate(-53.56 -10.61)" fill="#1f2447"/><path d="M713.86,208.46c-3.77,5.86-11.65,10.44-21,10.44-17,0-29.64-12.61-29.64-29.88s12.69-29.88,29.64-29.88c7.06,0,14.7,2.65,19.68,9l-5.06,3.77c-2.25-3.69-8.6-7.47-14.62-7.47-14.62,0-23.38,11.49-23.38,24.58s8.76,24.58,23.38,24.58c5.94,0,12-1.93,16.3-8.52Z" transform="translate(-53.56 -10.61)" fill="#1f2447"/><path d="M755.72,218.9c-17,0-29.64-12.61-29.64-29.88s12.69-29.88,29.64-29.88,29.64,12.61,29.64,29.88S772.66,218.9,755.72,218.9Zm0-54.46c-14.62,0-23.38,11.49-23.38,24.58s8.76,24.58,23.38,24.58,23.37-11.49,23.37-24.58S770.34,164.44,755.72,164.44Z" transform="translate(-53.56 -10.61)" fill="#1f2447"/><path d="M841.81,218.74l-19.36-24.66H808.23v24.66h-7V159h24.93c13.87,0,20.8,6.48,20.8,17.46,0,9-5.94,15.39-16.93,17l20.44,25.29Zm-17.47-30.33c9.73,0,15.58-4.14,15.58-11.88s-5-11.79-14.68-11.79h-17.1v23.67Z" transform="translate(-53.56 -10.61)" fill="#1f2447"/><path d="M868.42,159.32h24.4c14.11,0,21.08,6.17,21.08,18.68,0,12.33-7.5,18.85-22.07,18.85H875.39v21.8h-7ZM891,191c10.72,0,15.64-4,15.64-12.95s-4.56-13-14.93-13H875.39V191Z" transform="translate(-53.56 -10.61)" fill="#1f2447"/><path d="M862.83,22A22.25,22.25,0,1,0,885,44.12,22.27,22.27,0,0,0,862.83,22ZM592.38,77.26H579.22L564.45,27.55l-15,49.71H536.43L514.47,11H528.1l15.24,52.16L558.49,11H571l15.24,52.16L601.28,11h13.06Zm86.52-55.2H643v16.5h26.79V49.69H643V66.18H678.9V77.26H630.34V11H678.9Zm63.94,55.2H701.57V11h12.69V65.8h28.58Zm45.79.56c-19.5,0-34.55-14.67-34.55-33.79,0-18.94,15.24-33.42,35-33.42a36.82,36.82,0,0,1,25.57,10.61l-7.39,9.27c-4.73-5.3-11.45-8.61-18-8.61a22,22,0,1,0,0,44,26.52,26.52,0,0,0,18-7.77l7.48,8.33C807.94,73.37,798.19,77.82,788.63,77.82Zm74,0c-20,0-35.31-14.67-35.31-33.7s15.34-33.51,35.31-33.51S898,25.09,898,44.12,882.62,77.82,862.64,77.82Zm126.14-.56H977.23l-.1-47.34L957.54,70.44H949.3L929.71,29.92V77.26H918V11h14.67l20.83,42.5L974.2,11h14.58Zm73.83-55.2h-35.88v16.5h26.8V49.69h-26.8V66.18h35.88V77.26h-48.56V11h48.56Zm44.45,94H470v6.2h637Z" transform="translate(-53.56 -10.61)" fill="#1f2447"/></svg>