<svg xmlns="http://www.w3.org/2000/svg" data-name="Camada 1" viewBox="0 0 1053.49 208.33"><path fill="#c29864" d="M527.37 208.07h-6.84l-15.79-49.53-16 49.53h-6.85l-19.5-58.44h7.23l16 51 15.87-51h6.68l16 51 15.87-51h6.93Zm80 0h-40.75v-58.44h40.77v6.17h-34.1v20h23.08v6.1h-23.08v20h34.08Zm48.81 0h-23.39v-58.44h23.64c17 0 30.07 12.61 30.07 29.23s-13.11 29.21-30.32 29.21m76 0h-23.35v-58.44h23.64c17 0 30.07 12.61 30.07 29.23s-13.11 29.21-30.32 29.21Zm59.3 0h-6.69v-58.44h6.69Zm77.74 0h-6.85l-35.04-47.44v47.44h-6.71v-58.44h7l35 47.5v-47.5h6.6Zm53.53-5.84a28 28 0 0 0 15.37-4.93v-17.79h5.93v21.22a36.07 36.07 0 0 1-21.72 7.59c-17 0-30.48-13-30.48-29.48s13.61-29.4 30.82-29.4a33.1 33.1 0 0 1 21.55 8l-3.84 4.84a26.9 26.9 0 0 0-17.71-6.77c-13.37 0-24.06 10.36-24.06 23.31s10.82 23.41 24.18 23.41Zm65.36 6.09a33.38 33.38 0 0 1-22.39-8.93l3-5.77a29.37 29.37 0 0 0 19.46 8.19c8.44 0 13.7-3.42 13.7-9.11.08-15.61-32.83-7.34-32.83-28.31 0-9.19 8.1-15 20.22-15a34.57 34.57 0 0 1 18.54 5.44l-2.84 5.93a30.77 30.77 0 0 0-16.12-4.85c-7.52 0-12.45 3-12.45 8 0 15.2 32.91 7.26 32.83 28.48.05 9.67-8.55 15.93-21.08 15.93ZM732.3 155.78h-16.78v46.11h17c13 0 23.23-9.85 23.23-23s-10.33-23.11-23.45-23.11m-76 0h-16.82v46.11h17c13 0 23.23-9.85 23.23-23s-10.33-23.11-23.45-23.11ZM809.93 11.33a22.2 22.2 0 0 0-22.47 22.09 22.42 22.42 0 0 0 22.47 22.28 22.19 22.19 0 0 0 0-44.37M540.2 66.46h-13.12L512.35 16.9l-14.92 49.56h-13L462.5.38h13.6l15.2 52 15.1-52h12.47l15.19 52 15-52h13Zm86.29-55h-35.78v16.41h26.72v11.1h-26.72v16.45h35.78v11h-48.43V.38h48.43Zm63.77 55H649.1V.38h12.65v54.66h28.51Zm45.67.57c-19.45 0-34.46-14.64-34.46-33.7C701.47 14.44 716.67 0 736.4 0a36.7 36.7 0 0 1 25.49 10.63l-7.37 9.2c-4.71-5.29-11.42-8.6-17.93-8.6a22 22 0 1 0 0 43.9 26.4 26.4 0 0 0 17.93-7.74l7.46 8.31c-6.8 6.93-16.52 11.33-26.05 11.33m73.81 0c-19.92 0-35.22-14.64-35.22-33.61S789.82 0 809.74 0s35.21 14.44 35.21 33.42-15.33 33.61-35.21 33.61m125.79-.57h-11.52l-.09-47.2-19.54 40.37h-8.22l-19.54-40.37v47.2h-11.71V.38h14.64l20.77 42.38L920.99.38h14.54Zm73.63-55h-35.78v16.41h26.72v11.1h-26.72v16.45h35.78v11h-48.43V.38h48.43Zm44.33 93.73H418.18v6.17h635.31ZM392.41 16.37a79.91 79.91 0 0 0-73.2 47.87l-57.48 131.3a21 21 0 0 1-38.47 0L161.93 55.45a65.24 65.24 0 0 0-59.76-39.08H53.89l6.19 5A96.5 96.5 0 0 1 88.01 57.8l57.48 131.31c1.55 3.52 7.31 3.51 8.86 0l26.08-60.48 8.82 20.16-20.1 46.74a21 21 0 0 1-38.47 0L73.2 64.24A79.9 79.9 0 0 0 0 16.37V.2h102.17a81.41 81.41 0 0 1 74.58 48.77l61.32 140.09c1.54 3.52 7.31 3.5 8.85 0L304.4 57.75a96.4 96.4 0 0 1 27.93-36.43l6.18-5h-48.27a65.23 65.23 0 0 0-59.76 39.08L211.8 97.23l-8.83-20.17 12.65-28.09A81.41 81.41 0 0 1 290.24.2h102.17Z"/></svg>