<svg xmlns="http://www.w3.org/2000/svg" data-name="Camada 1" viewBox="0 0 1053.49 204.86"><path fill="#807f7e" d="m52.92 16.31 1.33 1.15c3.63 3.08 7.42 6 10.87 9.27a94.7 94.7 0 0 1 21.76 31.7c6.78 15.7 13.7 31.35 20.56 47l22.77 52c4.06 9.28 8.15 18.56 12.19 27.85 1.23 2.84 3.35 3.65 6.2 3.14a4.48 4.48 0 0 0 3.38-2.9c1.52-3.57 3.07-7.12 4.61-10.68q10.09-23.4 20.21-46.81c.11-.24.24-.47.49-.95.52 1.16.95 2.1 1.36 3.05 2.13 4.87 4.23 9.75 6.41 14.6a3.35 3.35 0 0 1 0 3q-9.49 22-18.91 43.94c-3 6.94-8.24 11.31-15.67 12.44a20 20 0 0 1-21.67-11.35c-1.9-4-3.59-8.1-5.37-12.16q-11.46-26.16-22.91-52.34-13.12-30-26.22-60c-2.88-6.61-5.86-13.15-10.09-19-12-16.74-28.14-27.29-48.22-31.79a83 83 0 0 0-14.27-1.68c-.49 0-1-.09-1.55-.14a13 13 0 0 1-.15-1.36V1.99C.03.45.09.41 1.61.38h98.91a77.3 77.3 0 0 1 34.17 7.76 78.18 78.18 0 0 1 38.63 39.8c11.41 25.73 22.6 51.62 33.9 77.43l26 59.34.4.91a5.2 5.2 0 0 0 9.44 0l8.33-19 21.78-49.75c8.79-20.2 17.56-40.34 26.43-60.45a93.55 93.55 0 0 1 28-36q2-1.55 3.89-3.12c.4-.33.75-.7 1.13-1.06l-.13-.36c-.52 0-1-.13-1.56-.13-15.57 0-31.15-.28-46.71.07-18.84.44-34.66 7.85-47.29 21.85a65.8 65.8 0 0 0-11 17.5q-8.55 19.27-17.2 38.52c-.13.29-.3.57-.55 1-.26-.47-.47-.76-.61-1.08-2.45-5.58-4.87-11.17-7.35-16.73a2.79 2.79 0 0 1 .06-2.52c4.14-9.12 8.14-18.32 12.41-27.38 10.53-22.32 27.73-36.91 51.42-43.83A64.4 64.4 0 0 1 278.73.67c2.26-.12 4.53-.27 6.79-.28h99.62c.43 1.49.49 13.39.11 15.26-.48.05-1 .13-1.54.15a79.17 79.17 0 0 0-70.35 47.64l-25.49 58.23-24.89 56.91c-2 4.57-3.93 9.16-6 13.69-3.05 6.62-8.25 10.76-15.41 11.83-10.22 1.52-18.08-3.76-21.65-11.36-2.38-5.06-4.53-10.22-6.77-15.34q-12.57-28.68-25.11-57.36l-22.92-52.31c-2.07-4.72-4-9.49-6.23-14.14-9.26-19.46-24.48-31.59-45.48-36.41a60.5 60.5 0 0 0-13.5-1.41H53.1ZM974.87 27.36h25.2a.92.92 0 0 1 1 1v8.65a.88.88 0 0 1-1 1h-25.04c-.57 1.82-.52 14.93.08 16.56h34.38c.48 1.43.57 8.19.21 10.09a.7.7 0 0 1-.13.11s-.08.09-.13.09a6.4 6.4 0 0 1-1 .13H963.5a1.7 1.7 0 0 1-.45-.12l-.13-.15a.4.4 0 0 1-.08-.14 5.6 5.6 0 0 1-.11-.82V1.35a6.5 6.5 0 0 1 .14-.84c.62 0 1.26-.14 1.89-.14h43.28c1.76 0 1.8 0 1.82 1.75v7c0 1.6-.08 1.66-1.73 1.66h-31.46c-1.9 0-2 .12-2 1.94v12.81c0 .55.12 1.14.2 1.83M428.38 108.94v-4.43a.83.83 0 0 1 .93-.93h624a25.8 25.8 0 0 1 .11 5.3l-.26.23s-.09.08-.14.08c-.49 0-1 .11-1.48.11l-622.58-.06c-.1-.01-.23-.1-.58-.3M472.17.49c.56-.05.93-.11 1.3-.11h10c1.45 0 1.51.06 1.94 1.5q6.84 23.45 13.69 46.9c.23.78.52 1.54.78 2.31h.38a19 19 0 0 0 .67-1.75q2.19-7.5 4.36-15 4.66-16 9.32-32.08c.11-.37.24-.74.33-1.11a1 1 0 0 1 1.1-.81h10.15c.88 0 1.06.6 1.26 1.27.95 3.3 1.94 6.59 2.9 9.89q5.55 19 11.09 38c.16.55.4 1.07.61 1.61h.4c.21-.6.46-1.19.63-1.8q6.74-23.33 13.45-46.64c.05-.16.07-.32.12-.48.52-1.8.52-1.8 2.38-1.8h10.37c-.22.83-.33 1.4-.51 1.95q-5.38 16.24-10.78 32.5-4.68 14.11-9.38 28.23a7 7 0 0 0-.26.79c-.21.92-.78 1.2-1.7 1.19h-9.82c-1.4 0-1.44 0-1.85-1.38-1.08-3.55-2.13-7.11-3.18-10.67q-5.19-17.47-10.35-34.91c-.14-.46-.36-.89-.57-1.41-.78.37-.78 1-.94 1.58q-2.3 7.54-4.56 15.11l-9.06 30.08c-.47 1.57-.48 1.58-2.18 1.58h-8.82c-2 0-2 0-2.56-1.81q-5.15-15.37-10.22-30.76-4.93-14.91-9.88-29.79c-.22-.7-.38-1.39-.61-2.18M903.03 42.07c.44-.78.79-1.31 1.07-1.88q8.53-17.49 17-35c.61-1.24 1.24-2.48 1.83-3.73a1.6 1.6 0 0 1 1.64-1.11h11.65c1.08 0 1.19.16 1.25 1.28V62.7c0 2.51 0 2.3-2.26 2.29h-7.32c-1.3 0-1.42-.12-1.42-1.44V19.11c-.94.13-1 .76-1.25 1.22q-3.5 7.17-7 14.37c-3.57 7.38-7.15 14.76-10.68 22.17a2.19 2.19 0 0 1-2.41 1.49 38 38 0 0 0-4.66 0 2 2 0 0 1-2.15-1.38c-2.81-5.91-5.68-11.79-8.53-17.68q-4.51-9.36-9-18.71c-.26-.53-.56-1-1-1.8a4.6 4.6 0 0 0-.42 1v44.96a7.4 7.4 0 0 1-1.27.24h-8.16c-1.38 0-1.47-.13-1.53-1.55V2.86c0-3 .2-2.51 2.57-2.52 3.16 0 6.32.07 9.48 0a2.58 2.58 0 0 1 2.8 1.7q8 16.45 16.07 32.87c.95 1.94 1.9 3.88 2.87 5.82.18.38.44.72.83 1.34M813.84.02c8.34.09 16 2.37 22.5 7.68a30.83 30.83 0 0 1 11.75 22.62 31.44 31.44 0 0 1-6.39 22 33 33 0 0 1-21.48 12.74 36 36 0 0 1-23.82-3.74c-9.29-5.06-15-12.88-16.66-23.35-2.74-17.6 8-32.75 25-36.9a34 34 0 0 1 9.1-1.05m22.09 32.79a21.92 21.92 0 0 0-21.92-22.06c-11.64 0-22.44 9-22.41 22a22.17 22.17 0 0 0 44.33 0ZM632.93 10.79h-32.75c-2.45 0-2.45 0-2.45 2.52v11.65c0 .7.09 1.41.15 2.29.74 0 1.38.1 2 .1h23.18a.86.86 0 0 1 1 .91v9.63a41 41 0 0 1-5.25.13h-20.83a16 16 0 0 0-.24 2V52.5c0 2 .08 2.06 2.06 2.07h32.83c.44 1.44.52 8.27.13 10.34-3.8.16-7.66 0-11.51.07s-7.88 0-11.82 0H586c-.06-.7-.15-1.23-.15-1.76V1.16a.79.79 0 0 1 .85-.82h44.94c1.17 0 1.29.15 1.32 1.39v4.32c0 1.44-.01 3-.03 4.74M766.36 10.23l-6.94 8.71c-.49-.45-.89-.81-1.28-1.18a24.35 24.35 0 0 0-12.75-6.71 21.8 21.8 0 0 0-8.47 42.76c7.29 1.58 13.81-.46 19.74-4.74.89-.65 1.73-1.37 2.76-2.19l7 7.8c-.74.68-1.36 1.3-2 1.86a36.3 36.3 0 0 1-18.69 8.73c-16.5 2.31-33.1-7.22-37.35-24.54a32.32 32.32 0 0 1 24.26-39.66c11.32-2.65 21.64-.34 30.9 6.67.92.7 1.74 1.53 2.82 2.49M695.73 54.28v10.63h-39.8c0-.75-.12-1.45-.12-2.15V1.51c0-.86.37-1.18 1.21-1.17h9.65c.85 0 1.22.36 1.19 1.19v52.58c.87.07 1.57.17 2.26.17h23.46ZM648.27 204.51c0-.83-.09-1.37-.09-1.91v-53.92c0-.81.29-1.27 1.16-1.23h.5c7.76 0 15.53-.07 23.3.11a21.7 21.7 0 0 1 12.17 3.91 15.9 15.9 0 0 1 6.76 11.2 23.9 23.9 0 0 1-.88 11.34 16.62 16.62 0 0 1-9.09 9.87l-2.27 1s-.07.08-.27.32c1.27 2.15 2.83 4.2 4.28 6.32s2.89 4.21 4.33 6.31l4.59 6.64h-6.29c-.83 0-1.1-.66-1.45-1.2l-7.29-11.09c-1.06-1.62-2.16-3.23-3.19-4.87a2.09 2.09 0 0 0-2-1.14c-5.44.06-10.88 0-16.31.06-1.75 0-1.86.11-1.87 1.93v15.33c0 .66-.31 1-1 1Zm6.25-24.1c.69 0 1.13.07 1.56.07h15.63a18.7 18.7 0 0 0 6.34-1.15 11.68 11.68 0 0 0 7.85-8.15 16.55 16.55 0 0 0 0-8.86 10.67 10.67 0 0 0-5.52-7 18.4 18.4 0 0 0-4.81-1.74 39 39 0 0 0-6.58-.64c-4.21-.1-8.42 0-12.64 0-1.93 0-2 .13-2.06 2.1v23.27c.05.67.16 1.36.23 2.1M771.22 176.02a28.49 28.49 0 0 1-22.08 27.77c-10.33 2.55-19.81.49-28-6.47a27.25 27.25 0 0 1-9.49-17.76c-2-15.19 8.44-28.94 23.62-31.77a30.3 30.3 0 0 1 23.19 4.52c8.4 5.62 12.6 13.62 12.76 23.71m-29.82 23.14a28 28 0 0 0 3.15-.17 28 28 0 0 0 4-.93c15.79-5.1 21.93-24.35 10.56-37.28a24 24 0 0 0-31-4 22.9 22.9 0 0 0-10.12 23.44 23.79 23.79 0 0 0 23.41 18.94M872.54 204.39h-5.68c-.41-1.33-.46-55.11 0-56.81.43 0 .92-.13 1.4-.13 7.6 0 15.2 0 22.79.08a22.1 22.1 0 0 1 10.19 2.71 16.12 16.12 0 0 1 8.67 12.66 24.6 24.6 0 0 1-.44 9.59c-1.76 6.75-6.26 10.78-12.82 12.67a26.2 26.2 0 0 1-7.37 1h-15.64a.88.88 0 0 0-.94.94v15.33c-.07.67-.12 1.24-.16 1.96m.2-24c.61 0 1.09.13 1.57.13h15.46a17.5 17.5 0 0 0 6.77-1.43 11.53 11.53 0 0 0 7.36-9 22.7 22.7 0 0 0 .29-4.12c-.06-5.74-3.12-9.88-8.56-11.75a25.7 25.7 0 0 0-8-1.23c-4.27-.07-8.53 0-12.8 0h-1.16a1 1 0 0 0-1 1.05v24.43c-.03.59.06 1.2.06 1.88ZM622.83 154.94l-3.36 4.25a9 9 0 0 1-1-.61 26.4 26.4 0 0 0-12.82-5.54c-11.79-1.64-23 4.78-26.6 16.21a23 23 0 0 0 15.59 28.81c7.67 2.33 14.88 1 21.68-3.11a2.36 2.36 0 0 0 1.15-2.36V177a17.8 17.8 0 0 1 4.58-.13c.22 0 .53.4.6.67a4.8 4.8 0 0 1 .08 1.32v16.81a3.14 3.14 0 0 1-1.6 3 35.4 35.4 0 0 1-16.56 5.93c-9.91.89-18.38-2.17-25.21-9.39a27.2 27.2 0 0 1-7.5-18.19c-.61-14.92 10.33-26.73 24-29.21a32.06 32.06 0 0 1 26.13 6.37c.22.17.45.41.84.76M834.27 147.57h5.94a15 15 0 0 1 .16 1.51c0 11.37.13 22.74-.09 34.11-.12 6.44-2.36 12.16-7.46 16.46a22.45 22.45 0 0 1-11.34 4.8 30.46 30.46 0 0 1-14-.95c-8.36-2.59-13-8.42-14.52-16.92a36 36 0 0 1-.43-6v-30.95c0-2.22 0-2.23 2.19-2.23h3.16a4 4 0 0 1 .65.19c.05.65.14 1.35.14 2v31.62a20.8 20.8 0 0 0 1.17 7.35 14.94 14.94 0 0 0 10.6 9.71 22.6 22.6 0 0 0 11.83.08c6.67-1.76 10.37-6.28 11.61-12.92a26.5 26.5 0 0 0 .36-4.79v-31Z"/></svg>