<svg xmlns="http://www.w3.org/2000/svg" viewBox="0 0 1120 1120">
  <style>
    .marca { fill: #1A1814; }
    @media (prefers-color-scheme: dark) {
      .marca { fill: #BD965C; }
    }
  </style>
  <path class="marca" d="M176.12,305.25c1.07.93,2.12,1.87,3.19,2.78,8.73,7.4,17.82,14.4,26.11,22.26,22.81,21.62,39.82,47.29,52.27,76.13,16.29,37.72,32.91,75.3,49.38,113l54.69,125Q376.4,677.81,391,711.24c3,6.84,8.05,8.77,14.9,7.56,3.89-.69,6.55-3.27,8.13-7,3.64-8.57,7.36-17.1,11.06-25.65Q449.39,630,473.67,573.75c.25-.58.58-1.14,1.17-2.28,1.24,2.78,2.28,5,3.27,7.31,5.12,11.69,10.16,23.42,15.39,35.07a8,8,0,0,1,.06,7.12Q470.75,673.7,448.14,726.5c-7.19,16.68-19.8,27.18-37.65,29.88-24.61,3.71-43.4-9.13-52-27.26-4.57-9.6-8.62-19.45-12.89-29.2q-27.53-62.85-55-125.71-31.5-72-63-144c-6.92-15.87-14.07-31.59-24.23-45.74-28.89-40.21-67.59-65.54-115.83-76.34A198.43,198.43,0,0,0,53.11,304c-1.16-.05-2.33-.2-3.71-.33A31.71,31.71,0,0,1,49,300.4q0-14.77,0-29.55c0-3.7.14-3.79,3.79-3.85,1.33,0,2.66,0,4,0q116.79,0,233.58,0a185.83,185.83,0,0,1,82.06,18.65c42.48,20.56,73.68,52.39,92.78,95.6,27.37,61.9,54.36,124,81.5,186l62.4,142.53c.32.73.66,1.45,1,2.18,2.15,5,6,7.22,11.35,7.2s9.16-2.31,11.32-7.26q10-22.85,20-45.68l52.31-119.51c21.16-48.36,42.2-96.78,63.53-145.07,15.18-34.36,37.77-63.09,67.23-86.4q4.7-3.72,9.35-7.49c1-.79,1.81-1.7,2.72-2.55l-.33-.87c-1.25-.11-2.5-.31-3.75-.31-37.4,0-74.81-.66-112.19.16-45.22,1-83.22,18.78-113.55,52.5-11.22,12.48-19.69,26.72-26.49,42Q571.06,445,550.29,491.19c-.31.71-.72,1.37-1.32,2.49a29.78,29.78,0,0,1-1.47-2.6c-5.88-13.39-11.69-26.81-17.65-40.17a6.74,6.74,0,0,1,.14-6.05c10-21.92,19.55-44,29.81-65.77,25.29-53.61,66.61-88.67,123.5-105.27a154.1,154.1,0,0,1,35.23-6.13c5.44-.28,10.89-.66,16.33-.66Q852,267,969.24,267h4.89c1,3.58,1.18,32.15.26,36.64-1.15.12-2.42.31-3.7.36-39.61,1.58-75.64,13.62-107.6,37.2-27.38,20.2-47.71,46.09-61.36,77.24q-30.65,70-61.27,140-29.91,68.34-59.8,136.69c-4.8,11-9.44,22-14.44,32.87-7.31,15.91-19.79,25.86-37,28.43-24.55,3.65-43.43-9-52-27.28-5.72-12.15-10.89-24.56-16.28-36.86q-30.16-68.88-60.31-137.78l-55-125.71c-5-11.33-9.64-22.79-14.95-34-22.26-46.75-58.81-75.87-109.24-87.45A144.09,144.09,0,0,0,289,304q-53.7,0-107.4,0h-5Z" transform="translate(48 48)"/>
</svg>